PathFileType  4	(X/Y/Z) C:\Users\antoi\Documents\MyRepositories\mobilecap\ResultsAnalysis
DataRate	CameraRate	NumFrames	NumMarkers	Units	OrigDataRate	OrigDataStartFrame	OrigNumFrames
100.0	100.0	4	51	mm	100.0	97	256
Frame#	Time	r_knee			r_shank_antsup			r_ankle			r_calc			r_5meta			r_toe			L_knee			L_shank_antsup			L_ankle			L_calc			L_5meta			L_toe			r_sh2			r_sh3			r_sh4			L_sh2			L_sh3			r_thigh1			r_thigh2			r_thigh3			r_thigh4			r_thigh5			L_thigh1			L_thigh2			L_thigh3			L_thigh4			r.ASIS			r.PSIS			L.ASIS			L.PSIS			C7			R_Shoulder			L_Shoulder			R_Sternum			L_Sternum			R_humerus			R_elbow_med			R_elbow_lat			R_forearm			R_wrist_radius			R_wrist_ulna			L_humerus			L_elbow_med			L_elbow_lat			L_forearm			L_wrist_radius			L_wrist_ulna			R_HJC			L_HJC			R_HJC_reg			L_HJC_reg			
		X1	Y1	Z1	X2	Y2	Z2	X3	Y3	Z3	X4	Y4	Z4	X5	Y5	Z5	X6	Y6	Z6	X7	Y7	Z7	X8	Y8	Z8	X9	Y9	Z9	X10	Y10	Z10	X11	Y11	Z11	X12	Y12	Z12	X13	Y13	Z13	X14	Y14	Z14	X15	Y15	Z15	X16	Y16	Z16	X17	Y17	Z17	X18	Y18	Z18	X19	Y19	Z19	X20	Y20	Z20	X21	Y21	Z21	X22	Y22	Z22	X23	Y23	Z23	X24	Y24	Z24	X25	Y25	Z25	X26	Y26	Z26	X27	Y27	Z27	X28	Y28	Z28	X29	Y29	Z29	X30	Y30	Z30	X31	Y31	Z31	X32	Y32	Z32	X33	Y33	Z33	X34	Y34	Z34	X35	Y35	Z35	X36	Y36	Z36	X37	Y37	Z37	X38	Y38	Z38	X39	Y39	Z39	X40	Y40	Z40	X41	Y41	Z41	X42	Y42	Z42	X43	Y43	Z43	X44	Y44	Z44	X45	Y45	Z45	X46	Y46	Z46	X47	Y47	Z47	X48	Y48	Z48	X49	Y49	Z49	X50	Y50	Z50	X51	Y51	Z51	

97	0.96000000	-395.36441	862.99453	-351.08308	-415.90625	713.77526	-309.41711	-397.87503	355.30110	-331.48125	-464.01399	351.91006	-390.71184	-288.14920	249.40117	-322.10422	-246.86134	266.06605	-375.26744	-417.66901	935.28471	-834.38363	-403.50912	734.30104	-854.99910	-564.29106	470.03415	-884.49375	-618.36646	468.39913	-814.10755	-498.01505	318.51938	-929.29801	-436.00043	329.78407	-883.83166	-414.94458	603.24003	-298.91218	-353.36290	717.88937	-349.49922	-350.19607	603.52133	-349.85803	-473.62969	769.71440	-893.74199	-514.46266	657.60855	-892.50526	-476.45711	1146.44299	-334.95773	-417.95473	1051.18662	-336.37059	-460.60384	997.72045	-323.82199	-572.89393	1090.06120	-353.34309	-511.98944	987.46707	-345.40345	-580.45941	1176.24796	-774.98044	-516.72135	1061.12489	-819.29246	-480.31715	1220.92055	-767.54577	-418.60576	1105.22009	-801.35208	-487.69016	1393.09440	-410.54610	-667.36079	1458.39969	-465.25864	-530.03731	1403.40205	-675.09163	-681.69822	1469.35827	-554.65471	-435.59072	1902.71224	-566.86487	-342.92945	1859.36684	-414.86454	-412.03286	1857.86096	-725.75866	-330.84392	1780.27788	-548.54528	-340.95983	1779.05497	-596.66559	-461.91268	1726.48709	-221.77870	-607.04126	1660.00143	-187.18878	-566.74085	1724.72921	-137.42063	-386.15200	1620.47496	-174.33329	-314.45113	1575.69940	-202.12788	-319.75927	1573.13974	-166.51979	-441.47775	1644.61660	-905.29975	-546.51862	1557.86890	-924.87400	-498.87938	1601.34347	-984.22061	-315.51726	1577.18530	-898.85322	-258.36715	1572.61174	-856.37716	-252.17749	1552.42752	-883.38406	-583.14424	1314.32986	-434.30929	-619.85890	1328.65618	-627.81433	-573.18554	1316.92654	-444.75476	-600.99916	1338.18650	-618.21915	
98	0.97000000	-384.91466	845.38290	-349.99429	-403.77607	695.71731	-308.44261	-380.11387	338.43570	-329.30978	-445.67485	333.13528	-389.18045	-268.80178	234.41269	-318.00062	-227.35046	250.55668	-371.12578	-408.08492	918.77792	-835.88860	-387.06108	718.61824	-858.03539	-536.80566	447.62008	-887.95420	-590.86246	444.50218	-817.73572	-465.49177	297.76066	-931.85564	-404.02313	311.29892	-886.45370	-400.66021	584.65675	-298.20812	-341.03875	700.84732	-348.00991	-336.00761	586.59806	-348.53124	-459.13116	751.25495	-895.42441	-495.38346	637.50007	-894.71248	-464.66852	1130.31909	-334.65510	-406.46743	1034.61261	-335.66755	-449.37725	981.35298	-322.70564	-561.37242	1073.66561	-352.79855	-500.74870	971.34361	-343.88700	-570.84773	1159.93012	-774.85533	-507.60134	1044.71129	-819.46284	-470.57207	1204.16080	-767.04240	-409.24817	1088.46584	-801.48302	-476.17822	1376.70027	-410.72318	-656.42879	1441.38069	-463.69336	-520.48412	1388.06018	-674.29278	-671.72433	1452.96323	-552.34729	-424.52270	1885.89247	-564.65517	-331.09119	1842.10089	-413.49022	-402.01215	1842.01388	-723.11327	-320.30308	1762.70746	-547.23321	-330.45035	1761.62569	-594.83184	-449.94164	1710.20415	-219.63201	-595.04896	1643.87790	-184.56325	-554.44923	1708.48362	-135.02181	-373.99254	1604.79822	-172.89796	-302.35367	1560.09300	-201.51407	-307.72938	1557.45409	-165.71021	-430.59542	1630.52422	-904.82391	-535.24991	1543.57956	-925.58861	-487.53625	1587.71708	-984.28823	-304.28563	1563.42906	-898.78854	-247.31134	1558.45936	-855.93669	-240.99971	1538.73996	-883.33690	-571.43538	1297.61306	-433.85471	-609.73599	1312.76635	-626.98670	-561.10023	1300.04696	-444.64797	-590.87928	1322.59749	-617.20224	
99	0.98000000	-373.89152	827.24314	-348.64938	-391.83827	677.08073	-307.40186	-364.04697	320.61810	-327.09755	-429.19648	313.88304	-388.39324	-251.94536	217.79794	-313.33211	-209.77830	233.57971	-365.81357	-398.25218	901.24137	-837.30566	-370.47407	702.13363	-860.79348	-509.33353	425.11168	-890.89535	-563.51483	420.39103	-820.91286	-433.03349	276.92703	-933.84076	-372.31327	292.57275	-888.14862	-387.46728	565.73283	-297.41214	-328.66809	682.95513	-346.24280	-322.18850	568.72178	-346.75659	-444.34780	732.05559	-897.39649	-476.00151	616.71474	-896.62308	-452.16219	1113.46062	-335.15242	-394.13993	1017.26572	-335.27945	-437.24513	964.49798	-321.71563	-549.09048	1056.77414	-352.62835	-488.60424	954.33117	-343.01332	-561.22235	1142.42639	-774.78593	-498.41662	1027.17342	-819.67493	-460.78305	1186.28614	-766.63000	-399.84156	1070.55711	-801.54599	-464.74643	1359.16529	-411.03108	-645.48988	1423.11329	-462.37185	-511.00416	1371.68270	-673.91326	-661.81118	1435.44271	-550.02889	-413.54853	1868.23199	-562.28613	-319.82554	1823.93627	-412.01923	-392.31910	1825.17203	-720.37342	-309.94250	1744.27595	-546.02145	-320.50589	1743.05254	-592.58144	-437.85067	1692.49736	-217.41351	-582.80532	1626.33392	-181.93794	-541.94162	1690.66659	-132.47820	-361.49175	1587.87655	-171.62277	-289.76149	1543.23610	-201.33698	-295.19555	1540.39602	-165.39492	-419.76064	1615.63590	-904.36288	-523.88714	1528.45060	-926.29593	-476.19794	1573.29881	-984.24699	-293.14716	1548.88535	-898.48840	-236.33085	1543.71640	-855.48434	-229.74541	1524.25770	-882.98675	-559.72268	1279.70528	-433.69552	-599.66400	1295.80430	-626.41724	-548.90724	1281.73407	-444.84125	-580.89440	1305.89587	-616.57796	
100	0.99000000	-362.08328	808.63283	-347.06834	-379.88667	657.80181	-306.27053	-349.57332	301.96318	-325.06812	-414.07867	294.33599	-388.47314	-237.53388	199.51382	-308.16349	-194.13990	214.95444	-359.61836	-388.12717	882.75290	-838.72460	-353.90837	684.64056	-862.92251	-482.17365	402.38940	-893.27903	-536.50214	396.01403	-823.73354	-400.84934	255.94156	-934.84522	-340.88202	273.63453	-888.74613	-375.19631	546.83227	-296.31768	-316.16203	664.15075	-344.34069	-308.54389	550.05503	-344.43054	-429.12874	712.18494	-899.77439	-456.42434	595.25593	-898.22894	-438.97598	1095.57619	-336.94161	-380.99446	999.41431	-335.34018	-424.14628	946.88057	-321.41177	-536.10454	1039.03462	-352.57804	-475.44609	936.37455	-342.63500	-551.53425	1123.75416	-774.94024	-488.98499	1008.55365	-819.99212	-450.97159	1167.26407	-766.30837	-390.36814	1051.63032	-801.80129	-453.48047	1340.45487	-411.27650	-634.77414	1403.47880	-461.34929	-501.63761	1354.11908	-673.82243	-651.98101	1415.91261	-548.75606	-402.68025	1849.65477	-559.75688	-308.61141	1804.84214	-410.62661	-383.02446	1807.34099	-717.68767	-299.34103	1725.02816	-544.70620	-310.39104	1724.06274	-590.86153	-425.63253	1673.32201	-215.18414	-570.31992	1607.13158	-179.19891	-529.19773	1671.29061	-129.73438	-348.68836	1569.58503	-170.58558	-276.99909	1525.08350	-201.44586	-281.75793	1521.24648	-165.27925	-408.96434	1599.97539	-903.89447	-512.38946	1512.42575	-926.98568	-464.90048	1558.04051	-984.09653	-282.06480	1533.67035	-897.97045	-225.37248	1528.43674	-855.04661	-218.45256	1509.30567	-882.66012	-547.99355	1260.46819	-433.84006	-589.30145	1277.26274	-626.21696	-537.16249	1263.00322	-444.53200	-570.90255	1287.39090	-615.94909	
